<?xml version="1.0" encoding="utf-8"?>
<!-- Generator: Adobe Illustrator 16.0.3, SVG Export Plug-In . SVG Version: 6.00 Build 0)  -->
<!DOCTYPE svg PUBLIC "-//W3C//DTD SVG 1.1//EN" "http://www.w3.org/Graphics/SVG/1.1/DTD/svg11.dtd" [
	<!ENTITY ns_extend "http://ns.adobe.com/Extensibility/1.0/">
	<!ENTITY ns_ai "http://ns.adobe.com/AdobeIllustrator/10.0/">
	<!ENTITY ns_graphs "http://ns.adobe.com/Graphs/1.0/">
	<!ENTITY ns_vars "http://ns.adobe.com/Variables/1.0/">
	<!ENTITY ns_imrep "http://ns.adobe.com/ImageReplacement/1.0/">
	<!ENTITY ns_sfw "http://ns.adobe.com/SaveForWeb/1.0/">
	<!ENTITY ns_custom "http://ns.adobe.com/GenericCustomNamespace/1.0/">
	<!ENTITY ns_adobe_xpath "http://ns.adobe.com/XPath/1.0/">
]>
<svg version="1.1" id="Capa_1" xmlns:x="&ns_extend;" xmlns:i="&ns_ai;" xmlns:graph="&ns_graphs;"
	 xmlns="http://www.w3.org/2000/svg" xmlns:xlink="http://www.w3.org/1999/xlink" x="0px" y="0px" width="147.667px" height="80px"
	 viewBox="0 0 147.667 80" enable-background="new 0 0 147.667 80" xml:space="preserve">
<metadata>
	<sfw  xmlns="&ns_sfw;">
		<slices></slices>
		<sliceSourceBounds  width="141.423" height="49.022" y="-454.896" x="200.988" bottomLeftOrigin="true"></sliceSourceBounds>
	</sfw>
</metadata>
<g>
	<g>
		<path fill-rule="evenodd" clip-rule="evenodd" fill="#FFFFFF" d="M3.048,43.162C2.77,38.37,3.419,33.743,5.567,29.383
			c2.17-4.401,5.556-7.343,10.211-8.885c5.549-1.839,11.163-1.984,16.732-0.345c5.88,1.73,9.522,5.767,11.001,11.718
			c0.997,4.003,0.823,3.208-2.546,3.262c-0.834,0.013-1.678-0.092-2.5,0.006c-2.032,0.24-3.276-0.818-4.247-2.401
			c-0.257-0.419-0.501-0.846-0.757-1.266c-1.019-1.675-2.419-2.908-4.312-3.464c-3.098-0.91-6.213-0.891-9.253,0.222
			c-3.194,1.17-5.222,3.569-6.294,6.707c-1.858,5.436-1.888,10.893,0.122,16.331c1.572,4.25,4.764,6.395,9.079,7.025
			c2.884,0.421,5.682,0.014,8.165-1.614c1.981-1.3,3.168-3.215,3.688-5.507c0.16-0.703,0.384-1.078,1.158-1.074
			c2.35,0.008,4.703,0.014,7.05-0.066c1.091-0.038,1.293,0.447,1.138,1.365c-1.294,7.738-5.709,12.695-13.316,14.613
			c-5.305,1.338-10.659,1.218-15.795-0.752c-5.658-2.172-8.938-6.594-10.737-12.244c-0.504-1.589-0.926-3.209-1.074-4.856
			C2.933,46.504,3.048,44.828,3.048,43.162z"/>
	</g>
	<g>
		<path fill-rule="evenodd" clip-rule="evenodd" fill="#FFFFFF" d="M121.258,46.027c0.195,4.269-0.396,8.225-2.364,11.814
			c-2.489,4.537-6.575,6.725-11.642,7.115c-2.297,0.178-4.611,0.203-6.901-0.212c-4.541-0.823-7.938-3.299-9.646-7.541
			c-2.781-6.908-2.938-14.008-0.31-21.011c1.689-4.497,4.979-7.218,9.858-7.989c3.685-0.582,7.3-0.58,10.895,0.446
			c4.414,1.261,7.212,4.2,8.762,8.443C120.989,40.046,121.465,43.084,121.258,46.027z M111.946,46.624
			c-0.003-2.11-0.195-3.824-0.618-5.524c-1.054-4.236-3.454-5.891-7.785-5.314c-1.962,0.261-3.362,1.293-4.18,3.07
			c-2.283,4.971-2.06,9.934,0.008,14.926c1.688,4.074,8.159,4.098,10.323,1.098C111.572,52.275,111.825,49.295,111.946,46.624z"/>
	</g>
	<g>
		<path fill-rule="evenodd" clip-rule="evenodd" fill="#F0BA10" d="M52.548,38.867c0-6.332-0.007-12.664,0.004-18.997
			c0.003-2.025,0.024-2.035,2.054-1.985c0.87,0.021,1.743,0.054,2.609,0.138c2.567,0.249,4.206,2.078,4.318,4.678
			c0.067,1.544-0.255,3.087,0.106,4.639c0.16,0.693,0.437,0.989,1.118,0.975c0.606-0.013,1.212,0.027,1.815-0.006
			c2.265-0.128,2.714,0.346,2.415,2.601c-0.24,1.823-2.27,3.697-4.11,3.76c-0.908,0.031-1.35,0.332-1.346,1.361
			c0.023,5.762-0.018,11.525-0.037,17.288c0,0.304-0.009,0.606,0.002,0.909c0.075,1.834,0.572,2.443,2.363,2.694
			c0.782,0.11,1.586,0.038,2.381,0.073c0.383,0.016,0.802,0.053,0.747,0.613c-0.191,1.889,0.167,3.782-0.08,5.675
			c-0.07,0.536-0.245,0.718-0.758,0.72c-2.918,0.008-5.843,0.164-8.752-0.127c-3.131-0.313-4.851-2.275-4.857-5.443
			c-0.013-6.522-0.004-13.044-0.004-19.566C52.541,38.867,52.544,38.867,52.548,38.867z"/>
	</g>
	<g>
		<path fill-rule="evenodd" clip-rule="evenodd" fill="#F0BA10" d="M70.665,39.33c0-6.37-0.001-12.74,0.003-19.11
			c0-0.454,0.035-0.909,0.075-1.361c0.056-0.631,0.466-1.037,1.046-0.973c1.54,0.168,3.103-0.066,4.631,0.349
			c1.84,0.499,3.427,2.533,3.252,4.275c-0.145,1.426,0.014,2.879-0.023,4.319c-0.028,1.132,0.5,1.574,1.584,1.528
			c0.833-0.037,1.669-0.064,2.501-0.013c0.926,0.056,1.383,0.531,1.387,1.545c0.007,2.706-1.537,4.483-4.291,4.786
			c-0.978,0.107-1.202,0.703-1.198,1.577c0.018,5.347,0.008,10.694,0.008,16.04c0,1.057-0.028,2.108,0.235,3.153
			c0.187,0.743,0.532,1.152,1.322,1.335c0.98,0.225,1.951,0.198,2.931,0.189c0.615-0.006,1.02,0.154,1.004,0.889
			c-0.032,1.668-0.027,3.336-0.044,5.004c-0.007,0.809-0.317,1.195-1.229,1.172c-2.803-0.072-5.607,0.071-8.41-0.195
			c-2.966-0.281-4.676-2.034-4.688-5.059c-0.028-6.483-0.009-12.967-0.009-19.451C70.725,39.33,70.695,39.33,70.665,39.33z"/>
	</g>
	<g>
		<path fill="#FFFFFF" d="M125.692,62.292v-1.965l9.176-10.548l0.069-0.084c1.705-1.938,2.557-3.438,2.557-4.502
			c0-0.862-0.301-1.57-0.901-2.124c-0.602-0.555-1.381-0.832-2.338-0.832c-0.864,0-1.61,0.271-2.241,0.814
			c-0.63,0.544-1.051,1.279-1.261,2.209l-4.851-2.301c0.735-1.848,1.859-3.278,3.371-4.292c1.512-1.013,3.283-1.52,5.314-1.52
			c2.439,0,4.488,0.738,6.146,2.217c1.658,1.479,2.486,3.32,2.486,5.526c0,1.354-0.373,2.757-1.12,4.207s-1.903,3.004-3.467,4.661
			l-3.327,3.544h9.105l-0.858,4.988H125.692z"/>
	</g>
</g>
</svg>
